HIERARCHY
ROOT joint_Root
{
  OFFSET 0.0 0.0 0.0
  CHANNELS 6 Xposition Yposition Zposition Zrotation Xrotation Yrotation
  JOINT Hips
  {
    OFFSET 0.0 93.9241 -3.0
    CHANNELS 6 Xposition Yposition Zposition Zrotation Xrotation Yrotation
    JOINT Spine
    {
      OFFSET 15.7357 0.0 0.0
      CHANNELS 6 Xposition Yposition Zposition Zrotation Xrotation Yrotation
      JOINT Chest
      {
        OFFSET 8.98455 -0.40621 0.0
        CHANNELS 6 Xposition Yposition Zposition Zrotation Xrotation Yrotation
        JOINT Neck
        {
          OFFSET 16.3773 0.0 0.0
          CHANNELS 6 Xposition Yposition Zposition Zrotation Xrotation Yrotation
          JOINT Head
          {
            OFFSET 6.45672 0.0 0.0
            CHANNELS 6 Xposition Yposition Zposition Zrotation Xrotation Yrotation
            End Site
            {
              OFFSET 0.0 0.0 0.0
            }
          }
        }
        JOINT Shoulder_L
        {
          OFFSET 12.9942 -0.24272 4.98039
          CHANNELS 6 Xposition Yposition Zposition Zrotation Xrotation Yrotation
          JOINT UpperArm_L
          {
            OFFSET 5.34809 0.0 0.0
            CHANNELS 6 Xposition Yposition Zposition Zrotation Xrotation Yrotation
            JOINT LowerArm_L
            {
              OFFSET 24.3286 2e-05 0.0
              CHANNELS 6 Xposition Yposition Zposition Zrotation Xrotation Yrotation
              JOINT Hand_L
              {
                OFFSET 22.2916 0.0 0.0
                CHANNELS 6 Xposition Yposition Zposition Zrotation Xrotation Yrotation
                End Site
                {
                  OFFSET 0.0 0.0 0.0
                }
              }
            }
          }
        }
        JOINT Shoulder_R
        {
          OFFSET 12.9945 -0.24272 -4.98039
          CHANNELS 6 Xposition Yposition Zposition Zrotation Xrotation Yrotation
          JOINT UpperArm_R
          {
            OFFSET -5.34813 0.0 0.0
            CHANNELS 6 Xposition Yposition Zposition Zrotation Xrotation Yrotation
            JOINT LowerArm_R
            {
              OFFSET -24.3289 0.00032 0.0
              CHANNELS 6 Xposition Yposition Zposition Zrotation Xrotation Yrotation
              JOINT Hand_R
              {
                OFFSET -22.2915 -0.00011 0.0
                CHANNELS 6 Xposition Yposition Zposition Zrotation Xrotation Yrotation
                End Site
                {
                  OFFSET 0.0 0.0 0.0
                }
              }
            }
          }
        }
      }
    }
    JOINT UpperLeg_L
    {
      OFFSET -2.19248 -6.46944 0.0
      CHANNELS 6 Xposition Yposition Zposition Zrotation Xrotation Yrotation
      JOINT LowerLeg_L
      {
        OFFSET 39.0811 0.0 -1e-05
        CHANNELS 6 Xposition Yposition Zposition Zrotation Xrotation Yrotation
        JOINT Foot_L
        {
          OFFSET 40.9854 0.0 -1e-05
          CHANNELS 6 Xposition Yposition Zposition Zrotation Xrotation Yrotation
          JOINT Toes_L
          {
            OFFSET 11.7543 0.0 0.0
            CHANNELS 6 Xposition Yposition Zposition Zrotation Xrotation Yrotation
            End Site
            {
              OFFSET 0.0 0.0 0.0
            }
          }
        }
      }
    }
    JOINT UpperLeg_R
    {
      OFFSET -2.19251 6.46944 0.0
      CHANNELS 6 Xposition Yposition Zposition Zrotation Xrotation Yrotation
      JOINT LowerLeg_R
      {
        OFFSET -39.0811 -0.00228 -0.04019
        CHANNELS 6 Xposition Yposition Zposition Zrotation Xrotation Yrotation
        JOINT Foot_R
        {
          OFFSET -40.9854 0.0 0.0
          CHANNELS 6 Xposition Yposition Zposition Zrotation Xrotation Yrotation
          JOINT Toes_R
          {
            OFFSET -11.7543 0.0 0.0
            CHANNELS 6 Xposition Yposition Zposition Zrotation Xrotation Yrotation
            End Site
            {
              OFFSET 0.0 0.0 0.0
            }
          }
        }
      }
    }
  }
}
MOTION
Frames: 5
Frame Time: 0.0333333
0.0 0.0 0.0 -0.0 0.0 -0.0 -1.71443 90.2704 -407.12299 86.4939 1.64287 -1.13337 15.7357 1e-05 -0.0 -53.22893 87.53224 54.04996 8.98455 -0.40621 -0.0 -3.835 2.86956 1.7379 16.3773 -0.0 -0.0 -6.66241 -2.15088 -1.62835 6.45672 -0.0 -0.0 4.67686 -6.3462 -0.48259 12.9942 -0.24272 4.98039 89.61709 1.66069 87.9874 5.34809 -1e-05 -0.0 -69.1204 -24.1181 15.4996 24.3286 2e-05 0.0 1.74332 6.74103 -14.5358 22.2916 -0.0 0.0 16.9231 5.26906 0.92212 12.9945 -0.24272 -4.98039 89.20309 4.44757 85.16871 -5.34813 -0.0 -0.0 -67.3435 -12.9207 8.13632 -24.3289 0.00032 -1e-05 2.51799 7.15338 -19.4561 -22.2915 -0.00011 -0.0 22.092 5.45777 -4.92022 -2.19248 -6.46944 -0.0 2.978 2.82767 -23.739 39.0811 -1e-05 -1e-05 -0.41124 0.1233 72.3669 40.9854 -1e-05 -1e-05 5.15587 -8.63664 -42.5539 11.7543 -0.0 0.0 0.42007 -0.50689 -21.3751 -2.19251 6.46944 -0.0 10.143 -0.13984 -13.134 -39.0811 -0.00228 -0.04019 0.03184 0.00771 29.7153 -40.9854 1e-05 1e-05 3.25539 -14.0774 -68.436 -11.7543 -1e-05 -1e-05 -0.05815 0.04285 -16.5729
0.0 0.0 0.0 -0.0 0.0 -0.0 -1.47402 90.6889 -404.10199 87.86831 1.37532 -1.51524 15.7357 1e-05 -0.0 -45.56813 87.32548 45.88911 8.98455 -0.40621 -0.0 -3.9609 3.70926 0.77096 16.3773 -0.0 -0.0 -6.72071 -2.18771 -1.75419 6.45672 -0.0 -0.0 4.6015 -6.903 -0.43488 12.9942 -0.24272 4.98039 89.6111 1.60813 88.5941 5.34809 -1e-05 -0.0 -66.9922 -25.2185 18.4625 24.3286 2e-05 0.0 1.57965 6.06356 -14.6312 22.2916 -0.0 0.0 16.6623 5.2794 0.64168 12.9945 -0.24272 -4.98039 89.34901 3.84344 84.6203 -5.34813 -0.0 -0.0 -67.2995 -13.0101 5.99046 -24.3289 0.00032 -1e-05 2.87413 7.441 -21.1975 -22.2915 -0.00011 -0.0 22.0897 5.45296 -4.74558 -2.19248 -6.46944 -0.0 1.13499 4.13237 -28.6584 39.0811 -1e-05 -1e-05 -0.43904 0.15428 69.87261 40.9854 -1e-05 -1e-05 7.54459 -12.659 -46.06551 11.7543 -0.0 0.0 0.37212 -0.44449 -20.802 -2.19251 6.46944 -0.0 8.49299 1.38327 -9.847 -39.0811 -0.00228 -0.04019 0.02884 0.00578 26.9814 -40.9854 1e-05 1e-05 3.26764 -12.4022 -69.4234 -11.7543 -1e-05 -1e-05 -0.06537 0.04823 -16.5729
0.0 0.0 0.0 -0.0 0.0 -0.0 -1.26568 90.9939 -401.22501 88.92641 1.19219 -2.1146 15.7357 1e-05 -0.0 -40.26402 87.09937 40.19605 8.98455 -0.40621 -0.0 -4.02013 4.43065 0.01924 16.3773 -0.0 -0.0 -7.14778 -2.20841 -1.76541 6.45672 -0.0 -0.0 4.3232 -7.41501 -0.63009 12.9942 -0.24272 4.98039 89.6043 1.58706 89.0001 5.34809 -1e-05 -0.0 -64.59361 -26.6001 21.3678 24.3286 2e-05 0.0 1.60028 5.9762 -15.0199 22.2916 -0.0 0.0 16.4436 5.27854 0.66622 12.9945 -0.24272 -4.98039 89.48451 3.19518 84.1694 -5.34813 -0.0 -0.0 -67.3211 -13.7378 3.74376 -24.3289 0.00032 -1e-05 3.03963 7.20764 -22.9468 -22.2915 -0.00011 -0.0 22.02761 5.44613 -4.50165 -2.19248 -6.46944 -0.0 0.15199 5.28934 -32.39229 39.0811 -1e-05 -1e-05 -0.37264 0.17637 63.5563 40.9854 -1e-05 -1e-05 7.93017 -14.4194 -48.88 11.7543 -0.0 0.0 0.38753 -0.46441 -20.9854 -2.19251 6.46944 -0.0 7.052 3.86342 -6.69 -39.0811 -0.00228 -0.04019 0.02251 0.00717 23.761 -40.9854 1e-05 1e-05 3.4977 -9.90923 -70.0731 -11.7543 -1e-05 -1e-05 -0.09366 0.0692 -16.5723
0.0 0.0 0.0 -0.0 0.0 -0.0 -1.18045 91.0839 -398.452 89.4666 0.96966 -2.82154 15.7357 1e-05 -0.0 -36.88902 86.91949 36.573 8.98455 -0.40621 -0.0 -4.06185 4.95665 -0.45637 16.3773 -0.0 -0.0 -7.68673 -2.21693 -1.74481 6.45672 -0.0 -0.0 3.72401 -7.65895 -0.62457 12.9942 -0.24272 4.98039 89.64201 1.39606 89.3821 5.34809 -1e-05 -0.0 -62.13649 -28.029 24.19 24.3286 2e-05 0.0 1.58918 5.77917 -15.4036 22.2916 -0.0 0.0 16.8369 5.27379 0.79547 12.9945 -0.24272 -4.98039 89.58701 2.67861 83.76859 -5.34813 -0.0 -0.0 -67.4443 -14.4847 1.3036 -24.3289 0.00032 -1e-05 3.02874 6.655 -24.5471 -22.2915 -0.00011 -0.0 22.0676 5.43886 -4.24567 -2.19248 -6.46944 -0.0 0.00601 5.71153 -34.3899 39.0811 -1e-05 -1e-05 -0.2588 0.18089 53.3203 40.9854 -1e-05 -1e-05 7.73196 -13.9084 -50.6434 11.7543 -0.0 0.0 0.38666 -0.46327 -20.9749 -2.19251 6.46944 -0.0 6.304 4.86692 -3.67899 -39.0811 -0.00228 -0.04019 0.00084 0.05161 20.4485 -40.9854 1e-05 1e-05 3.43724 -9.03437 -70.52089 -11.7543 -1e-05 -1e-05 -0.05333 0.03929 -16.5731
0.0 0.0 0.0 -0.0 0.0 -0.0 -1.21501 90.9587 -395.65399 89.3352 0.53172 -3.36525 15.7357 1e-05 -0.0 -34.66499 86.69963 34.33903 8.98455 -0.40621 -0.0 -4.0051 5.45901 -0.46317 16.3773 -0.0 -0.0 -8.27519 -2.06335 -1.69537 6.45672 -0.0 -0.0 3.00349 -7.7954 -0.57198 12.9942 -0.24272 4.98039 89.65101 1.32324 89.7726 5.34809 -1e-05 -0.0 -59.7776 -28.7708 26.7173 24.3286 2e-05 0.0 1.57677 5.71793 -15.4445 22.2916 -0.0 0.0 17.4081 5.28346 0.53284 12.9945 -0.24272 -4.98039 89.6357 2.45043 83.4579 -5.34813 -0.0 -0.0 -67.31808 -14.8999 -1.08981 -24.3289 0.00032 -1e-05 3.14733 6.53865 -25.78239 -22.2915 -0.00011 -0.0 22.8667 5.44343 -4.40331 -2.19248 -6.46944 -0.0 0.356 4.71182 -33.76941 39.0811 -1e-05 -1e-05 -0.14012 0.15934 38.664 40.9854 -1e-05 -1e-05 7.00007 -11.3043 -50.78609 11.7543 -0.0 0.0 0.38925 -0.46661 -21.0057 -2.19251 6.46944 -0.0 6.312 5.26158 -0.317 -39.0811 -0.00228 -0.04019 -0.02072 0.11714 16.7718 -40.9854 1e-05 1e-05 3.38365 -8.60543 -70.75641 -11.7543 -1e-05 -1e-05 -0.00121 0.00089 -16.5739
